<svg xmlns="http://www.w3.org/2000/svg" viewBox="0 0 48 48" role="img" aria-label="TikTok">
  <path fill="#25F4EE" d="M34.5 14.1V11a8.8 8.8 0 0 1-5.3-1.6v11.9a9.3 9.3 0 1 1-8.3-9.2v4.8a4.5 4.5 0 1 0 3.2 4.3V2h4.7a8.8 8.8 0 0 0 8.8 8.8v3.3a15.4 15.4 0 0 1-8.8-2.7V14.1z"/>
  <path fill="#FE2C55" d="M32.5 12.1V9a8.8 8.8 0 0 1-5.3-1.6v11.9a9.3 9.3 0 1 1-8.3-9.2v4.8a4.5 4.5 0 1 0 3.2 4.3V0h4.7a8.8 8.8 0 0 0 8.8 8.8v3.3a15.4 15.4 0 0 1-8.8-2.7V12.1z"/>
  <path fill="#000" d="M33 13.1V10a8.8 8.8 0 0 1-5.3-1.6v11.9a9.3 9.3 0 1 1-8.3-9.2v4.8a4.5 4.5 0 1 0 3.2 4.3V1h4.7a8.8 8.8 0 0 0 8.8 8.8v3.3a15.4 15.4 0 0 1-8.8-2.7V13.1z"/>
</svg>
